# File created by Blade
# Date/Time:  Thu Sep 25 18:39:44 2014
# Frame Rate: 120.000 fps
#------------------------------------------------------
:FULLY-SPECIFIED
:DEGREES
1957
root -0.684658 32.969021 -3.720236 8.230818 6.526352 -1.498930
Spine -3.604765 0.549066 6.017444
Head -32.116336 -0.054099 -0.532951
LeftShoulder -5.769671 29.251230 11.290368
LeftArm 36.711028 30.212500 -52.092497
LeftForeArm -55.522647 0.000000 59.441020
LeftHand -26.101877 -0.000000 -9.659808
LeftHandThumb1 -26.253704 0.000000 33.147579
RightShoulder -14.117821 6.509891 -16.642070
RightArm -6.685458 -3.644592 62.945811
RightForeArm -0.849007 -0.000000 16.010193
RightHand -5.583823 0.000000 7.160279
RightHandThumb1 -24.326973 -0.000000 -32.862282
LeftUpLeg -4.457718 4.206527 2.051190
LeftLeg -0.850935 -0.000000 0.000000
LeftFoot -8.847063 0.378820 -9.478942
LeftToeBase 10.025914 -0.000000 -0.000000
RightUpLeg -4.762637 -8.861588 1.000841
RightLeg 1.651149 -0.000000 -0.000000
RightFoot -7.690128 -2.642386 0.437141
RightToeBase -0.256277 -0.000000 0.000000
1958
root -0.679539 32.969910 -3.735075 8.224941 6.406510 -1.503446
Spine -3.543461 0.574374 5.960133
Head -32.146135 -0.090793 -0.327725
LeftShoulder -5.643597 29.202467 11.493282
LeftArm 37.153797 30.887510 -51.486095
LeftForeArm -55.500551 -0.000000 59.389214
LeftHand -25.704661 -0.000000 -10.422917
LeftHandThumb1 -26.253704 0.000000 33.147579
RightShoulder -13.963817 6.870581 -16.760655
RightArm -6.179508 -3.433228 62.649903
RightForeArm -0.866122 -0.000000 16.259950
RightHand -5.459822 -0.000000 7.053229
RightHandThumb1 -24.326973 -0.000000 -32.862282
LeftUpLeg -4.470292 4.222145 2.039046
LeftLeg -0.840116 -0.000000 0.000000
LeftFoot -8.891424 0.498984 -9.334439
LeftToeBase 10.211251 -0.000000 -0.000000
RightUpLeg -4.802706 -8.812653 0.988141
RightLeg 1.667546 -0.000000 -0.000000
RightFoot -7.655670 -2.591383 0.416385
RightToeBase -0.264847 -0.000000 0.000000
1959
root -0.673129 32.970588 -3.749901 8.205617 6.266928 -1.512531
Spine -3.482279 0.616066 5.908142
Head -32.135822 -0.144731 -0.136559
LeftShoulder -5.471208 29.100502 11.724504
LeftArm 37.642057 31.545108 -50.937384
LeftForeArm -55.398421 -0.000000 59.429029
LeftHand -25.449592 -0.000000 -10.772921
LeftHandThumb1 -26.253704 0.000000 33.147579
RightShoulder -13.811713 7.285742 -16.873778
RightArm -5.568548 -3.291791 62.372357
RightForeArm -0.995528 -0.000000 16.493572
RightHand -5.390094 -0.000000 6.941187
RightHandThumb1 -24.326973 -0.000000 -32.862282
LeftUpLeg -4.463408 4.248029 2.015550
LeftLeg -0.816779 -0.000000 0.000000
LeftFoot -8.906640 0.602001 -9.525994
LeftToeBase 10.094970 -0.000000 -0.000000
RightUpLeg -4.835288 -8.751760 0.970425
RightLeg 1.696504 -0.000000 -0.000000
RightFoot -7.653002 -2.515189 0.462633
RightToeBase -0.208640 -0.000000 0.000000
1960
root -0.670167 32.971486 -3.766505 8.201924 6.122318 -1.540932
Spine -3.462953 0.667773 5.859999
Head -32.077553 -0.199346 0.097635
LeftShoulder -5.244379 28.956105 11.975248
LeftArm 38.162720 32.182946 -50.414873
LeftForeArm -55.005040 -0.000000 59.594951
LeftHand -25.320625 -0.000000 -11.026597
LeftHandThumb1 -26.253704 0.000000 33.147579
RightShoulder -13.623090 7.780139 -16.967991
RightArm -4.972906 -3.350414 62.094386
RightForeArm -0.944760 -0.000000 16.809436
RightHand -5.384095 -0.000000 6.726074
RightHandThumb1 -24.326973 -0.000000 -32.862282
LeftUpLeg -4.476090 4.330290 2.028541
LeftLeg -0.820095 -0.000000 0.000000
LeftFoot -8.921120 0.661315 -9.353036
LeftToeBase 10.219215 -0.000000 -0.000000
RightUpLeg -4.887203 -8.735218 0.987956
RightLeg 1.716768 -0.000000 -0.000000
RightFoot -7.613772 -2.457296 0.383284
RightToeBase -0.198618 -0.000000 0.000000
1961
root -0.663690 32.972842 -3.784329 8.170591 5.986790 -1.555295
Spine -3.416994 0.710777 5.808415
Head -32.002248 -0.291532 0.304934
LeftShoulder -4.968201 28.776517 12.213849
LeftArm 38.697114 32.720239 -49.999341
LeftForeArm -54.701351 -0.000000 59.787829
LeftHand -25.156763 -0.000000 -11.936031
LeftHandThumb1 -26.253704 0.000000 33.147579
RightShoulder -13.417970 8.340964 -17.083770
RightArm -4.336536 -3.414906 61.858492
RightForeArm -0.859047 -0.000000 17.120130
RightHand -5.369087 -0.000000 6.487957
RightHandThumb1 -24.326973 -0.000000 -32.862282
LeftUpLeg -4.465026 4.376770 2.014833
LeftLeg -0.798676 -0.000000 0.000000
LeftFoot -8.903454 0.719131 -9.445768
LeftToeBase 10.083004 -0.000000 -0.000000
RightUpLeg -4.908037 -8.607115 0.968538
RightLeg 1.729861 -0.000000 -0.000000
RightFoot -7.558803 -2.409074 0.421672
RightToeBase -0.269738 -0.000000 0.000000
1962
root -0.661292 32.973990 -3.805910 8.184682 5.835546 -1.586715
Spine -3.449764 0.800764 5.761682
Head -31.847920 -0.424237 0.507323
LeftShoulder -4.656383 28.565410 12.470718
LeftArm 39.274863 33.231685 -49.598077
LeftForeArm -54.721159 -0.000000 59.984392
LeftHand -24.853720 -0.000000 -12.483261
LeftHandThumb1 -26.253704 0.000000 33.147579
RightShoulder -13.221302 8.925084 -17.216356
RightArm -3.627487 -2.900185 61.701048
RightForeArm -1.287123 0.000000 17.372722
RightHand -5.228695 -0.000000 6.366220
RightHandThumb1 -24.326973 -0.000000 -32.862282
LeftUpLeg -4.510944 4.453478 2.018790
LeftLeg -0.773836 -0.000000 0.000000
LeftFoot -8.913459 0.787787 -9.491808
LeftToeBase 10.059932 -0.000000 -0.000000
RightUpLeg -4.988316 -8.672521 1.001425
RightLeg 1.732404 -0.000000 -0.000000
RightFoot -7.462373 -2.227317 0.314543
RightToeBase -0.371970 -0.000000 0.000000
